<svg xmlns="http://www.w3.org/2000/svg" version="1.1"
    xmlns:xlink="http://www.w3.org/1999/xlink"
    xmlns:svgjs="http://svgjs.dev/svgjs" width="1000" height="750" viewBox="0 0 1000 750">
    <rect width="1000" height="750" fill="#000000"></rect>
    <g transform="matrix(0.834,0,0,0.834,82.49454545454546,115.4193570850203)">
        <svg viewBox="0 0 396 247" data-background-color="#ed2647" preserveAspectRatio="xMidYMid meet" height="623" width="1000"
            xmlns="http://www.w3.org/2000/svg"
            xmlns:xlink="http://www.w3.org/1999/xlink">
            <g id="tight-bounds" transform="matrix(1,0,0,1,0.2400000000000091,-0.09999999999999432)">
                <svg viewBox="0 0 395.52 247.2" height="247.2" width="395.52">
                    <g>
                        <svg></svg>
                    </g>
                    <g>
                        <svg viewBox="0 0 395.52 247.2" height="247.2" width="395.52">
                            <mask id="a7be3c4d-3df1-4c78-81d7-de5e2b782d2e">
                                <rect width="395.52" height="247.2" fill="white"></rect>
                                <g transform="matrix(1,0,0,1,125.6419524405507,37.08)" id="clone">
                                    <svg viewBox="0 0 144.2360951188986 173.04" height="173.04" width="144.2360951188986">
                                        <g>
                                            <svg viewBox="0 0 144.2360951188986 173.04" height="173.04" width="144.2360951188986">
                                                <g>
                                                    <svg viewBox="0 0 144.2360951188986 173.04" height="173.04" width="144.2360951188986">
                                                        <g>
                                                            <svg viewBox="0 0 144.2360951188986 173.04" height="173.04" width="144.2360951188986">
                                                                <g id="SvgjsG1426">
                                                                    <svg viewBox="0 0 144.2360951188986 173.04" height="173.04" width="144.2360951188986" id="SvgjsSvg1425">
                                                                        <g>
                                                                            <svg viewBox="0 0 144.2360951188986 173.04" height="173.04" width="144.2360951188986">
                                                                                <g transform="matrix(1,0,0,1,0,0)">
                                                                                    <svg width="144.2360951188986" viewBox="-0.9500000476837158 -36.599998474121094 34.30000114440918 40.94999694824219" height="173.04" data-palette-color="#ffffff">
                                                                                        <path d="M22.7-17.15Q26.05-16.6 27.18-14.83 28.3-13.05 28.3-10.65L28.3-10.65Q28.3-10.15 28.25-9.9L28.25-9.9Q27.3-3.8 23.15-1.23 19 1.35 13.35 1.35L13.35 1.35Q11.9 1.35 10.23 1.03 8.55 0.7 7.5 0.1L7.5 0.1Q6.75 0.65 4.7 0.65L4.7 0.65Q3.35 0.65 2.8-0.43 2.25-1.5 2.25-3.05L2.25-3.05Q2.25-3.6 2.4-4.1L2.4-4.1 8-26.5Q4.45-25.3 3.6-24L3.6-24Q2.05-25.65 2.05-27.05L2.05-27.05Q2.05-28.15 2.9-29.3L2.9-29.3Q4.9-30.6 9.4-31.75L9.4-31.75Q9.8-32.8 10.43-33.2 11.05-33.6 12.3-33.6L12.3-33.6Q13.35-33.6 14.28-33.4 15.2-33.2 15.6-32.8L15.6-32.8Q18-33.1 20.45-33.1L20.45-33.1Q25.55-33.1 27.95-31.08 30.35-29.05 30.35-25.45L30.35-25.45Q30.35-22.4 28.2-20.23 26.05-18.05 22.7-17.15L22.7-17.15ZM12.55-18.45Q23.5-19.35 23.5-24.85L23.5-24.85Q23.5-26.4 22.55-27.28 21.6-28.15 19.3-28.15L19.3-28.15Q17.25-28.15 14.75-27.9L14.75-27.9 12.55-18.45ZM12.7-3.5Q14.95-3.5 17.07-4.33 19.2-5.15 20.55-6.68 21.9-8.2 21.9-10.25L21.9-10.25Q21.9-11.95 20.73-13.18 19.55-14.4 17.45-14.4L17.45-14.4Q13.5-14.4 11.75-14.1L11.75-14.1Q10.95-11.4 9.1-4.1L9.1-4.1Q10.7-3.5 12.7-3.5L12.7-3.5Z" opacity="1" transform="matrix(1,0,0,1,0,0)" fill="black" class="wordmark-text-0" id="SvgjsPath1424" stroke-width="5" stroke="black" stroke-linejoin="round"></path>
                                                                                    </svg>
                                                                                </g>
                                                                            </svg>
                                                                        </g>
                                                                    </svg>
                                                                </g>
                                                            </svg>
                                                        </g>
                                                    </svg>
                                                </g>
                                            </svg>
                                        </g>
                                    </svg>
                                </g>
                            </mask>
                            <g mask="url(#a7be3c4d-3df1-4c78-81d7-de5e2b782d2e)">
                                <g>
                                    <path xmlns="http://www.w3.org/2000/svg" d="M230.758 118.396c11.338 1.861 18.919 5.787 22.744 11.778 3.791 6.024 5.686 13.098 5.686 21.221v0c0 1.692-0.085 2.961-0.254 3.807v0c-3.215 20.645-11.846 35.317-25.891 44.015-14.045 8.732-30.629 13.098-49.752 13.098v0c-4.907 0-10.187-0.542-15.839-1.625-5.686-1.117-10.306-2.691-13.859-4.721v0c-2.538 1.861-7.277 2.792-14.215 2.792v0c-4.569 0-7.784-1.828-9.646-5.482-1.861-3.621-2.792-8.055-2.792-13.301v0c0-1.861 0.254-3.638 0.762-5.331v0l28.429-113.718c-12.015 4.061-19.461 8.292-22.337 12.692v0c-5.246-5.584-7.869-10.746-7.869-15.484v0c0-3.723 1.438-7.53 4.315-11.422v0c6.769-4.4 17.768-8.546 32.999-12.438v0c1.354-3.554 3.097-6.007 5.229-7.361 2.098-1.354 5.263-2.031 9.493-2.031v0c3.554 0 6.904 0.338 10.052 1.015 3.114 0.677 5.347 1.692 6.701 3.046v0c8.123-1.015 16.33-1.523 24.622-1.523v0c17.261 0 29.952 3.418 38.075 10.255 8.123 6.87 12.184 16.398 12.184 28.582v0c0 10.323-3.638 19.156-10.915 26.5-7.277 7.378-16.584 12.59-27.922 15.636zM179.23 111.797c37.06-3.046 55.59-13.876 55.59-32.491v0c0-5.246-1.608-9.358-4.823-12.336-3.215-2.944-8.715-4.417-16.499-4.417v0c-6.938 0-14.638 0.423-23.099 1.269v0zM179.992 187.693c7.615 0 15.01-1.405 22.185-4.214 7.209-2.775 13.098-6.752 17.667-11.93 4.569-5.144 6.854-11.186 6.853-18.123v0c0-5.754-1.98-10.712-5.94-14.875-3.994-4.129-9.544-6.194-16.651-6.194v0c-13.369 0-23.014 0.508-28.937 1.523v0c-2.708 9.138-7.192 26.06-13.453 50.767v0c5.415 2.031 11.507 3.046 18.276 3.046z" fill="#ffffff" fill-rule="nonzero" stroke="none" stroke-width="1" stroke-linecap="butt" stroke-linejoin="miter" stroke-miterlimit="10" stroke-dasharray="" stroke-dashoffset="0" font-family="none" font-weight="none" font-size="none" text-anchor="none" style="mix-blend-mode: normal" data-fill-palette-color="tertiary"></path>
                                </g>
                            </g>
                            <g transform="matrix(1,0,0,1,125.6419524405507,37.08)">
                                <svg viewBox="0 0 144.2360951188986 173.04" height="173.04" width="144.2360951188986">
                                    <g>
                                        <svg viewBox="0 0 144.2360951188986 173.04" height="173.04" width="144.2360951188986">
                                            <g>
                                                <svg viewBox="0 0 144.2360951188986 173.04" height="173.04" width="144.2360951188986">
                                                    <g>
                                                        <svg viewBox="0 0 144.2360951188986 173.04" height="173.04" width="144.2360951188986">
                                                            <g id="textblocktransform">
                                                                <svg viewBox="0 0 144.2360951188986 173.04" height="173.04" width="144.2360951188986" id="textblock">
                                                                    <g>
                                                                        <svg viewBox="0 0 144.2360951188986 173.04" height="173.04" width="144.2360951188986">
                                                                            <g transform="matrix(1,0,0,1,0,0)">
                                                                                <svg width="144.2360951188986" viewBox="-0.9500000476837158 -36.599998474121094 34.30000114440918 40.94999694824219" height="173.04" data-palette-color="#ffffff">
                                                                                    <path d="M22.7-17.15Q26.05-16.6 27.18-14.83 28.3-13.05 28.3-10.65L28.3-10.65Q28.3-10.15 28.25-9.9L28.25-9.9Q27.3-3.8 23.15-1.23 19 1.35 13.35 1.35L13.35 1.35Q11.9 1.35 10.23 1.03 8.55 0.7 7.5 0.1L7.5 0.1Q6.75 0.65 4.7 0.65L4.7 0.65Q3.35 0.65 2.8-0.43 2.25-1.5 2.25-3.05L2.25-3.05Q2.25-3.6 2.4-4.1L2.4-4.1 8-26.5Q4.45-25.3 3.6-24L3.6-24Q2.05-25.65 2.05-27.05L2.05-27.05Q2.05-28.15 2.9-29.3L2.9-29.3Q4.9-30.6 9.4-31.75L9.4-31.75Q9.8-32.8 10.43-33.2 11.05-33.6 12.3-33.6L12.3-33.6Q13.35-33.6 14.28-33.4 15.2-33.2 15.6-32.8L15.6-32.8Q18-33.1 20.45-33.1L20.45-33.1Q25.55-33.1 27.95-31.08 30.35-29.05 30.35-25.45L30.35-25.45Q30.35-22.4 28.2-20.23 26.05-18.05 22.7-17.15L22.7-17.15ZM12.55-18.45Q23.5-19.35 23.5-24.85L23.5-24.85Q23.5-26.4 22.55-27.28 21.6-28.15 19.3-28.15L19.3-28.15Q17.25-28.15 14.75-27.9L14.75-27.9 12.55-18.45ZM12.7-3.5Q14.95-3.5 17.07-4.33 19.2-5.15 20.55-6.68 21.9-8.2 21.9-10.25L21.9-10.25Q21.9-11.95 20.73-13.18 19.55-14.4 17.45-14.4L17.45-14.4Q13.5-14.4 11.75-14.1L11.75-14.1Q10.95-11.4 9.1-4.1L9.1-4.1Q10.7-3.5 12.7-3.5L12.7-3.5Z" opacity="1" transform="matrix(1,0,0,1,0,0)" fill="#ffffff" class="wordmark-text-0" data-fill-palette-color="primary" id="text-0"></path>
                                                                                </svg>
                                                                            </g>
                                                                        </svg>
                                                                    </g>
                                                                </svg>
                                                            </g>
                                                        </svg>
                                                    </g>
                                                </svg>
                                            </g>
                                        </svg>
                                    </g>
                                </svg>
                            </g>
                        </svg>
                    </g>
                    <defs></defs>
                </svg>
                <rect width="395.52" height="247.2" fill="none" stroke="none" visibility="hidden"></rect>
            </g>
        </svg>
    </g>
</svg>